<?xml version="1.0" encoding="UTF-8" standalone="no"?>
<!-- Created with Inkscape (http://www.inkscape.org/) -->

<svg
   version="1.1"
   id="svg572"
   width="750"
   height="700"
   viewBox="0 0 750 700"
   sodipodi:docname="identity.svg"
   inkscape:version="1.2.2 (732a01da63, 2022-12-09)"
   xmlns:inkscape="http://www.inkscape.org/namespaces/inkscape"
   xmlns:sodipodi="http://sodipodi.sourceforge.net/DTD/sodipodi-0.dtd"
   xmlns="http://www.w3.org/2000/svg"
   xmlns:svg="http://www.w3.org/2000/svg">
  <defs
     id="defs576" />
  <sodipodi:namedview
     id="namedview574"
     pagecolor="#ffffff"
     bordercolor="#666666"
     borderopacity="1.0"
     inkscape:showpageshadow="2"
     inkscape:pageopacity="0.0"
     inkscape:pagecheckerboard="0"
     inkscape:deskcolor="#d1d1d1"
     showgrid="false"
     inkscape:zoom="0.86035156"
     inkscape:cx="839.19183"
     inkscape:cy="480.03632"
     inkscape:window-width="1920"
     inkscape:window-height="1009"
     inkscape:window-x="-8"
     inkscape:window-y="-8"
     inkscape:window-maximized="1"
     inkscape:current-layer="g578" />
  <g
     inkscape:groupmode="layer"
     inkscape:label="Image"
     id="g578"
     transform="translate(-140.18407,-75.348453)">
    <path
       style="fill:#000000"
       d="m 415.88872,649.05366 c -4.23241,-3.26453 -12.55741,-9.18086 -18.5,-13.14742 -5.9426,-3.96655 -14.67471,-10.27915 -19.4047,-14.02801 -12.53451,-9.93449 -31.68713,-30.19107 -39.07213,-41.32425 l -6.30757,-9.50891 -1.84197,3.59036 c -3.26375,6.36171 -4.75593,12.64656 -5.36926,22.61457 -0.37452,6.08684 -1.01492,9.74995 -1.7045,9.74987 -1.85276,-2.3e-4 -16.2128,-9.5993 -21.21954,-14.18436 C 287.20567,578.83766 271.26656,551.45288 267.82033,533.28599 267.16449,529.82869 266.34314,527 265.99511,527 c -0.77779,0 -7.52844,14.62715 -8.45567,18.32153 -0.36974,1.47316 -1.02656,2.67847 -1.4596,2.67847 -1.11148,0 -6.41471,-8.47715 -9.38387,-15 -2.27252,-4.99242 -3.18389,-8.45876 -6.83591,-26 -1.82624,-8.77169 -1.46311,-39.14622 0.56663,-47.39697 0.93318,-3.79334 1.51677,-7.0769 1.29686,-7.29682 -0.54117,-0.54117 -11.93636,10.58011 -13.96925,13.63346 -0.89336,1.34181 -1.83354,2.23043 -2.08928,1.97469 -1.12574,-1.12574 -2.56609,-14.25828 -2.56805,-23.41436 -0.007,-32.73728 16.25852,-93.39904 34.99669,-130.51913 l 2.80038,-5.54753 -3.46188,-7.46667 c -14.05795,-30.32058 -18.08455,-61.39364 -12.23728,-94.43453 0.58088,-3.28232 2.61083,-9.89943 4.51102,-14.70467 l 3.45488,-8.73681 -4.48476,-9.79533 c -4.49096,-9.80889 -10.59202,-26.58975 -10.59202,-29.13318 0,-2.96816 4.09399,-7.16215 6.99137,-7.16215 3.58641,0 8.66719,4.17517 9.4639,7.77703 0.91505,4.13689 9.63341,13.66728 36.93446,40.37457 27.96416,27.35597 32.44054,32.49549 45.59403,52.3484 5.10162,7.7 9.58898,14.34919 9.97192,14.77597 0.38294,0.42678 3.58707,0.10611 7.12029,-0.7126 15.15217,-3.51104 27.07737,-4.75415 50.42403,-5.25633 26.57981,-0.57172 39.91587,0.65022 57.44455,5.26344 8.28642,2.18084 9.54882,2.29931 10.29492,0.9661 1.62947,-2.9117 22.82614,-30.75386 31.4858,-41.35708 4.79707,-5.87373 17.99546,-19.9045 29.32974,-31.1795 11.94003,-11.87757 23.57829,-24.49576 27.67021,-30 8.23925,-11.08302 12.3934,-15.27974 14.36196,-14.50914 0.77705,0.30418 2.48608,2.20454 3.79783,4.22304 l 2.38502,3.66998 -2.2251,7.05806 c -1.2238,3.88193 -4.72087,12.57087 -7.77126,19.30876 l -5.54617,12.25069 2.68977,5.99362 c 1.47938,3.29649 3.63915,10.60868 4.7995,16.24931 2.82476,13.73165 3.01777,42.3832 0.3857,57.25568 -2.38472,13.47481 -7.88675,29.7925 -13.17359,39.0697 l -4.34841,7.63048 4.40115,8.76322 c 7.02055,13.97875 13.30418,28.31286 20.14856,45.96254 3.5034,9.03427 6.36982,16.57177 6.36982,16.75 0,0.17823 -0.7875,0.33069 -1.75,0.33879 -3.57358,0.0301 -25.81595,8.1656 -35.28594,12.90645 -15.69679,7.85808 -38.27734,24.11429 -47.48219,34.18341 -17.96706,19.65403 -31.32029,45.67068 -39.00918,76.00316 -6.42917,25.36292 -5.83628,55.47598 1.56139,79.30306 l 2.14562,6.91081 -6.36685,6.08919 c -13.78868,13.18735 -27.80752,34.99054 -33.97412,52.83919 -1.28264,3.7125 -2.55858,6.74756 -2.83541,6.74458 -0.27682,-0.003 -3.9662,-2.67639 -8.1986,-5.94092 z M 398.584,527.36251 c 11.64263,-5.02579 13.76424,-5.10254 24.49366,-0.88608 7.76405,3.05112 10.4287,3.65328 14.62602,3.3052 4.94398,-0.40999 16.38032,-5.09843 16.38032,-6.71528 0,-0.4326 -2.47022,-1.04149 -5.48938,-1.3531 -8.65514,-0.89329 -19.00671,-4.59007 -23.41225,-8.36105 -6.29944,-5.39208 -8.4757,-9.70745 -8.45902,-16.77362 0.0229,-9.69399 2.89553,-13.70768 13.61216,-19.0191 6.87405,-3.40695 9.55266,-6.41602 10.31085,-11.58293 0.89175,-6.07701 0.64049,-6.15788 -20.69165,-6.65906 -10.65389,-0.2503 -22.74571,-0.0866 -26.87071,0.36371 l -7.5,0.8188 -0.31803,3.87864 c -0.57986,7.07172 1.26439,9.49479 10.46022,13.74328 4.8047,2.21978 8.96004,4.86756 9.90692,6.31269 3.79588,5.79324 3.01937,16.85452 -1.68139,23.95138 -3.90667,5.89799 -13.74651,10.94946 -26.26586,13.48407 l -8.85856,1.79347 5.37835,2.0901 c 13.06598,5.07763 15.90817,5.26521 24.37835,1.60888 z M 372.28507,409 c 1.94431,0 0.33045,-17.90628 -2.20815,-24.5 -3.21403,-8.34808 -13.13745,-18.27395 -21.49292,-21.49824 -10.89406,-4.20391 -31.20171,-3.82744 -32.90451,0.60999 -0.31975,0.83326 -1.03454,1.23493 -1.58843,0.89262 -1.44954,-0.89587 -1.26814,0.43826 1.10682,8.14029 4.2638,13.82758 8.18695,19.1127 17.72787,23.88234 4.87119,2.43517 15.21507,4.70304 17.65825,3.87152 0.55,-0.18719 3.44803,-0.55186 6.44006,-0.81037 4.83334,-0.41761 5.69769,-0.19205 7.75,2.02243 1.27047,1.37086 2.30994,3.51928 2.30994,4.77428 0,2.78479 0.94221,3.85129 2.77955,3.14624 0.76122,-0.29211 1.8509,-0.5311 2.42152,-0.5311 z m 82.42099,-0.75 c 1.2813,-4.00911 2.98357,-6.59278 4.62794,-7.02417 0.9625,-0.2525 1.75,-1.07036 1.75,-1.81746 0,-1.01457 0.82256,-1.17487 3.25,-0.63337 1.7875,0.39875 7.075,0.70956 11.75,0.6907 6.8461,-0.0276 9.33572,-0.47386 12.79506,-2.29332 10.00151,-5.26034 16.59532,-14.71736 19.20275,-27.54112 1.48744,-7.31546 0.7515,-8.24135 -7.81727,-9.83488 -17.112,-3.18231 -38.01625,6.16045 -45.17325,20.18933 -2.86214,5.61025 -6.00729,18.22844 -6.00729,24.10093 0,4.67113 0.40695,5.22217 4.28138,5.79736 0.42977,0.0638 1.03307,-0.6715 1.34068,-1.634 z"
       id="path2257" />
    <path
       style="fill:#000000"
       d="M 592.06346,500.01284 C 582.90921,498.89127 572.37673,489.98173 567.22298,479 c -2.14239,-4.56507 -2.58607,-6.97463 -2.61007,-14.17488 -0.0329,-9.88096 1.05002,-12.12574 8.3359,-17.27904 8.57392,-6.06431 23.4248,-3.92915 32.80407,4.71635 4.93867,4.55231 9.89726,13.90749 11.24045,21.20692 1.0861,5.90237 -0.079,14.33381 -2.48906,18.01199 -3.69615,5.64103 -14.01458,9.56387 -22.44081,8.5315 z"
       id="path2255" />
    <path
       style="fill:#000000"
       d="M 687.584,548.13266 C 679.62937,544.50651 674.35801,538.50759 670.77176,529 c -1.43392,-3.80152 -2.84319,-5.24459 -9.07923,-9.29703 -9.2606,-6.01793 -18.43231,-15.52775 -21.95094,-22.76015 -1.82321,-3.74755 -3.0394,-8.46931 -3.73477,-14.5 -1.36165,-11.80917 -0.47578,-18.89818 3.15632,-25.25774 2.45021,-4.29017 3.58212,-5.28605 7.07798,-6.22739 5.21606,-1.40454 9.03644,-0.70075 16.53421,3.04593 11.39415,5.69372 23.5725,20.4375 30.3191,36.70596 4.6541,11.22269 6.84391,15.28533 10.62447,19.71107 5.15889,6.0393 7.6131,13.64713 7.18687,22.27862 -0.42142,8.53392 -2.28009,11.69765 -8.8422,15.05073 -5.30507,2.71076 -9.14958,2.81236 -14.47957,0.38266 z"
       id="path2253" />
    <path
       style="fill:#000000"
       d="m 538.88665,563.0898 c -3.5644,-2.26048 -5.31015,-4.37524 -7.81942,-9.47231 -3.06741,-6.23079 -3.2068,-7.00527 -2.76075,-15.3398 0.83372,-15.57804 6.98807,-26.78733 17.54245,-31.95111 10.28925,-5.03406 21.23686,-3.00045 27.99691,5.20066 3.88199,4.70953 5.23816,9.55964 5.23816,18.73344 0,14.57767 -5.95195,27.37769 -15.19536,32.6785 -4.61911,2.64892 -6.28088,3.04326 -12.85886,3.05144 -6.63277,0.008 -8.11396,-0.3456 -12.14313,-2.90082 z"
       id="path2251" />
    <path
       style="fill:#000000"
       d="M 613.28271,573.41173 C 603.24596,568.41021 598.084,559.36854 598.084,546.78974 c 0,-11.26401 4.01041,-17.92024 13.5,-22.40645 6.45336,-3.05083 15.87707,-3.2519 21.35805,-0.45571 11.50887,5.87139 16.83724,20.63339 12.59902,34.90501 -1.95374,6.57897 -6.5474,11.83465 -12.94979,14.8161 -6.69809,3.11914 -12.72211,3.04521 -19.30857,-0.23696 z"
       id="path2249" />
    <path
       style="fill:#000000"
       d="m 662.51326,614.10719 c -5.01382,-2.27723 -10.11774,-8.28124 -11.56727,-13.60719 -1.60268,-5.88862 -0.30945,-17.00274 2.6975,-23.18266 6.41863,-13.19164 23.55253,-16.13252 35.04623,-6.01537 5.67286,4.99346 8.34301,10.50126 8.37232,17.26989 0.0513,11.83986 -6.70142,21.80029 -17.17816,25.33834 -7.58041,2.55995 -12.05628,2.61071 -17.37062,0.19699 z"
       id="path2247" />
    <path
       style="fill:#000000"
       d="m 600.40634,630.93038 c -12.29679,-2.12111 -30.40485,-10.9451 -36.37171,-17.72381 -3.75983,-4.27139 -6.95541,-11.92493 -6.94689,-16.63807 0.0108,-5.9881 8.04742,-12.87139 17.01325,-14.57172 12.36139,-2.34429 31.89774,5.72109 43.24655,17.85388 6.1355,6.55935 8.02217,10.5412 8.02217,16.93094 0,4.69785 -0.4015,5.74579 -3.39285,8.85548 -1.86607,1.93989 -4.06786,3.88833 -4.89286,4.32986 -2.59679,1.38978 -11.29347,1.89217 -16.67766,0.96344 z"
       id="path2245" />
    <path
       style="fill:#000000"
       d="m 789.12054,735.87563 c -5.47906,-1.65068 -8.23441,-3.98759 -31.03654,-26.32315 -11.825,-11.58304 -24.9875,-24.17176 -29.25,-27.97493 -4.2625,-3.80317 -7.02355,-6.35543 -7.02355,-6.91472 0,-0.5593 0.10214,-3.12425 1.33652,-4.22986 1.59882,-1.43203 0.15478,-3.29876 -0.84283,-5.10171 l -3.76134,-3.76135 c -3.66692,-3.66692 -6.95776,-6.52373 -7.31297,-6.34846 -0.35521,0.17526 -8.07083,3.9955 -17.14583,8.48941 C 666.3757,677.43193 648.42874,682 622.22986,682 587.29177,682 558.283,672.38494 531.35916,651.88058 519.52887,642.871 511.84251,634.4487 501.92625,619.6296 482.52073,590.62948 475.55459,568.27672 475.70767,535.5 c 0.11909,-25.50142 5.04004,-46.9405 15.46757,-67.38753 12.91272,-25.32017 40.03862,-51.49166 66.40876,-64.07219 26.94165,-12.85319 56.88388,-16.96656 87.5,-12.0205 32.65302,5.27513 59.68374,19.29853 81.80928,42.44225 15.02002,15.71122 23.43155,28.94756 31.48075,49.53797 8.30642,21.2484 9.21649,26.36272 9.16422,51.5 -0.0395,18.9843 -0.35613,23.43931 -2.30999,32.5 -4.41458,20.47187 -12.22348,39.69092 -21.52606,52.97936 l -4.53588,6.47936 2.20884,2.36841 c 1.21486,1.30262 7.49437,6.873 8.98233,7.93921 2.26608,1.62377 3.03012,1.73577 4.70512,0.68971 2.26795,-1.41635 3.73906,1.28386 37.26958,32.95106 29.18834,27.56632 30.21442,29.76069 29.60014,41.92536 -0.30562,6.05209 -0.90779,8.22928 -3.38371,12.23399 -1.65657,2.67943 -4.94215,6.22829 -7.3013,7.88636 -3.68591,2.59056 -5.30046,3.04644 -11.47634,3.24047 -3.95284,0.12418 -8.74554,-0.24376 -10.65044,-0.81766 z M 639.084,653.54543 c 18.72315,-2.84352 35.19727,-9.00413 50,-18.69785 8.02814,-5.25731 24.24424,-21.29116 29.68116,-29.34758 8.86411,-13.13481 16.06276,-30.90563 19.73072,-48.70784 2.06608,-10.02761 2.10874,-32.82675 0.0814,-43.51396 -9.39708,-49.53737 -48.00207,-86.18376 -98.72393,-93.71523 -26.46725,-3.93001 -48.53605,-0.27627 -72.84022,12.05952 -22.60875,11.47528 -45.44357,35.3614 -54.07024,56.55961 -9.55725,23.4849 -11.92586,52.46676 -6.19638,75.8179 4.92262,20.06271 18.7512,44.69486 32.10352,57.18439 27.61506,25.83066 64.60294,37.77238 100.23396,32.36104 z"
       id="path2243"
       sodipodi:nodetypes="ssssscssssssssssssssscsssssssssssssssssssss" />
  </g>
</svg>
