<?xml version="1.0" encoding="UTF-8" standalone="no"?>
<!-- Created with Inkscape (http://www.inkscape.org/) -->

<svg
   version="1.1"
   id="svg4585"
   width="750"
   height="700"
   viewBox="0 0 750 700"
   sodipodi:docname="taxon_classification.svg"
   inkscape:version="1.2.2 (732a01da63, 2022-12-09)"
   xmlns:inkscape="http://www.inkscape.org/namespaces/inkscape"
   xmlns:sodipodi="http://sodipodi.sourceforge.net/DTD/sodipodi-0.dtd"
   xmlns="http://www.w3.org/2000/svg"
   xmlns:svg="http://www.w3.org/2000/svg">
  <defs
     id="defs4589" />
  <sodipodi:namedview
     id="namedview4587"
     pagecolor="#ffffff"
     bordercolor="#666666"
     borderopacity="1.0"
     inkscape:showpageshadow="2"
     inkscape:pageopacity="0.0"
     inkscape:pagecheckerboard="0"
     inkscape:deskcolor="#d1d1d1"
     showgrid="false"
     inkscape:zoom="0.86035156"
     inkscape:cx="332.42225"
     inkscape:cy="437.03065"
     inkscape:window-width="1920"
     inkscape:window-height="1009"
     inkscape:window-x="-8"
     inkscape:window-y="-8"
     inkscape:window-maximized="1"
     inkscape:current-layer="g4591" />
  <g
     inkscape:groupmode="layer"
     inkscape:label="Image"
     id="g4591"
     transform="translate(-141.1442,-75.847522)">
    <path
       style="fill:#000000"
       d="m 589.17818,525.77091 c -3.0365,-0.73457 -6.15366,-4.03469 -8.65317,-9.16106 -1.92861,-3.95545 -2.25052,-6.2117 -2.22908,-15.62311 0.0287,-12.59605 2.05773,-19.47771 7.65053,-25.94762 7.628,-8.8243 20.62418,-4.23645 25.67826,9.06482 2.98651,7.85984 2.01774,20.392 -2.23273,28.8828 -5.45811,10.90323 -11.69187,14.84575 -20.21381,12.78417 z"
       id="path4764" />
    <path
       style="fill:#000000"
       d="m 541.98869,525.59672 c -7.52645,-3.51759 -12.31051,-14.44157 -12.31051,-28.10998 0,-10.5645 2.25192,-17.57981 7.13856,-22.23848 4.9802,-4.74785 7.79295,-5.4413 13.39422,-3.30215 9.84029,3.75804 14.96722,14.39082 14.96722,31.04063 0,9.1623 -0.24268,10.43795 -2.89696,15.22801 -1.59333,2.8754 -3.72627,5.97852 -4.73987,6.89582 -2.83259,2.56346 -10.58914,2.80592 -15.55266,0.48615 z"
       id="path4762" />
    <path
       style="fill:#000000"
       d="m 625.97623,555.7873 c -3.16988,-0.6148 -8.02129,-6.57595 -9.38961,-11.53743 -1.39689,-5.06514 -0.26935,-13.23946 3.02499,-21.93014 2.56335,-6.76228 5.01794,-10.06082 10.37386,-13.94063 5.31866,-3.85282 10.06129,-3.85678 15.3677,-0.0128 8.96714,6.49577 10.91681,21.14815 4.49821,33.80558 -5.27372,10.39976 -14.20231,15.49153 -23.87515,13.61546 z"
       id="path4760" />
    <path
       style="fill:#000000"
       d="m 505.04401,555.56814 c -10.70666,-6.5286 -16.15513,-24.28683 -11.49775,-37.47467 2.53652,-7.1824 4.3401,-9.28921 9.19826,-10.74475 10.40055,-3.11608 20.33019,5.16478 25.88864,21.58992 2.81259,8.31116 2.66312,15.81768 -0.41972,21.07815 -1.43717,2.45234 -3.92319,5.13632 -5.52449,5.96438 -4.20419,2.17407 -13.76938,1.95017 -17.64494,-0.41303 z"
       id="path4758" />
    <path
       style="fill:#000000"
       d="m 531.05342,616.081 c -5.62222,-2.61783 -11.44543,-9.24687 -13.44496,-15.30552 -0.67391,-2.04198 -0.98069,-6.60155 -0.71877,-10.6829 0.58104,-9.05385 3.10711,-13.23227 12.97324,-21.45931 7.33862,-6.11944 14.77814,-13.92545 22.97486,-24.10668 5.78491,-7.1855 9.44095,-9.20676 17.72526,-9.7995 5.58767,-0.3998 7.47387,-0.1039 11.16908,1.75216 5.96774,2.99752 8.11945,5.09108 14.98562,14.58064 3.58454,4.9541 9.43806,11.13555 15.15088,15.99969 11.00744,9.37219 12.45685,10.90043 14.36384,15.14504 1.73056,3.85191 1.89106,14.06363 0.30428,19.35984 -1.62592,5.42684 -6.24295,10.57457 -12.20975,13.6132 -7.17506,3.65393 -17.36285,3.77089 -27.14882,0.31167 -9.66741,-3.41731 -19.64546,-3.33321 -33.18419,0.27969 -12.4671,3.32693 -16.352,3.37976 -22.94057,0.31198 z"
       id="path4756" />
    <path
       style="fill:#000000"
       d="m 739.26891,741.97696 c -6.21798,-2.37919 -9.34858,-5.21486 -41.77085,-37.83559 -32.91268,-33.11415 -33.21889,-33.52121 -30.95916,-41.15463 0.81933,-2.76771 0.46093,-3.43925 -4.62861,-8.67279 l -5.5167,-5.6728 -7.60771,5.30495 c -16.67289,11.62621 -33.7412,18.92514 -53.09473,22.70492 -9.13953,1.78497 -12.99517,1.98384 -29.51297,1.52222 -16.10183,-0.45 -20.37282,-0.91109 -28,-3.02287 -16.31933,-4.51843 -32.85013,-11.72158 -39.24048,-17.09871 -3.97851,-3.3477 -4.43593,-3.23614 -2.80916,0.68508 3.5492,8.55507 4.78689,16.89213 4.32469,29.13115 -0.38863,10.29082 -0.87471,13.13693 -3.22242,18.86816 -3.37702,8.24395 -10.14398,15.7624 -17.05263,18.94636 -4.98165,2.29587 -5.18624,2.30543 -55.74469,2.60509 l -50.74469,0.30077 -2.50531,-2.50531 c -4.3658,-4.3658 -2.63285,-13.98646 3.37154,-18.71746 2.3769,-1.87281 3.67224,-2.02958 13.79833,-1.66996 l 11.17519,0.39689 -5.21532,-5.63317 c -6.73268,-7.27209 -12.11617,-15.42703 -13.51496,-20.47252 -1.74063,-6.27855 -1.38328,-17.78588 0.72459,-23.33335 2.3143,-6.09075 7.08638,-13.23916 13.04569,-19.54201 l 4.60963,-4.87536 -5.18161,0.57014 c -14.54858,1.60082 -23.67761,13.34192 -30.22063,38.86762 -1.59493,6.22213 -3.62642,16.31747 -4.51444,22.43409 -1.89038,13.02085 -3.83782,20.14491 -7.22078,26.41482 -3.88176,7.19437 -4.58267,7.42014 -24.20945,7.79813 -9.5408,0.18375 -18.35087,0.0821 -19.57794,-0.22586 -4.22818,-1.06121 -7.57548,-5.17734 -7.57141,-9.31047 0.008,-8.15697 6.44123,-13.7362 15.14673,-13.13609 l 4.90813,0.33834 1.18948,-4 c 0.77759,-2.6149 1.20028,-12.71215 1.2207,-29.15968 l 0.0312,-25.15968 -6.76294,-9.90426 c -13.6639,-20.01068 -15.21891,-25.1221 -16.35992,-53.77638 -0.894,-22.45101 -1.13572,-22.79868 -18.73611,-26.94898 -16.76062,-3.95227 -19.76592,-5.98501 -23.18789,-15.68388 -1.78524,-5.05991 -2.10677,-14.77727 -0.58316,-17.62416 0.59468,-1.11117 3.34796,-3.64879 6.1184,-5.63915 4.18392,-3.00585 5.71556,-5.04675 9.04213,-12.04859 4.66807,-9.82545 8.30314,-13.36394 19.48048,-18.96285 4.20325,-2.10547 7.8636,-4.40493 8.13413,-5.10991 0.27052,-0.70497 -0.45231,-6.5554 -1.6063,-13.00094 -1.15398,-6.44555 -1.84225,-12.52545 -1.52948,-13.5109 1.09245,-3.44201 5.3265,-5.2229 11.37692,-4.78525 6.83648,0.49451 11.53451,3.4108 16.74082,10.39184 5.59985,7.50873 10.10845,12.02221 18.95191,18.97235 11.62142,9.13336 15.62351,15.5473 16.8162,26.95042 1.49098,14.25502 3.54058,20.09999 9.29108,26.49593 5.9411,6.60793 10.06368,8.88259 26.31375,14.51878 15.05146,5.22046 24.66288,9.43365 33.98652,14.89808 3.44478,2.01894 6.44124,3.49278 6.65881,3.27521 0.21757,-0.21756 -0.10407,-5.87083 -0.71474,-12.56281 -3.50295,-38.38665 11.68462,-78.38431 40.05573,-105.48991 15.66041,-14.96186 29.53295,-23.56965 49.01368,-30.41254 9.00608,-3.16351 27.90364,-7.22274 33.62517,-7.22274 h 3.41711 l -0.27114,-19.75 -0.27114,-19.75 -62.16935,-0.25754 -62.16935,-0.25754 -0.33065,23.25754 c -0.29559,20.79116 -0.53376,23.59315 -2.24592,26.42233 -3.18226,5.25835 -8.51425,6.64498 -15.05043,3.91399 -5.99908,-2.50658 -9.22567,-12.15883 -5.60373,-16.76338 1.90924,-2.42722 2.06943,-3.9539 2.06943,-19.72313 v -17.09227 h -43.5109 c -42.20198,0 -43.64613,-0.0636 -48.00624,-2.11306 -9.69352,-4.55649 -12.41834,-11.37609 -11.6985,-29.27861 l 0.47816,-11.89167 -2.88126,0.71158 c -1.58469,0.39137 -10.20431,0.95821 -19.1547,1.25965 l -16.27343,0.54806 -6.27122,9.13203 c -27.99684,40.76848 -33.39256,47.59772 -41.26182,52.2241 -5.4729,3.21755 -13.75034,5.96221 -20.25286,6.71551 -4.80738,0.55692 -5.58323,0.36732 -7.87502,-1.92447 -2.24228,-2.24228 -2.46709,-3.09061 -1.90524,-7.18973 1.00096,-7.30282 5.51912,-15.64311 16.08569,-29.69339 9.23599,-12.28101 19.52734,-26.93552 19.52734,-27.80624 0,-0.2181 -5.28008,-0.65659 -11.73352,-0.97443 -10.46946,-0.51562 -11.92382,-0.81289 -13.5,-2.75938 -4.2861,-5.29311 -4.33671,-5.21207 29.72123,-47.58966 33.29646,-41.43008 37.47159,-46.18035 57.44388,-65.35687 10.58679,-10.16498 19.6408,-19.21442 20.12003,-20.10987 0.47923,-0.89545 1.12838,-3.15257 1.44255,-5.01582 4.99011,-29.59463 21.21641,-44.88773 47.62683,-44.88773 9.78768,0 18.31884,2.60621 26.29503,8.03297 6.16205,4.19246 14.16133,13.43492 15.19609,17.55773 0.43083,1.71654 1.73343,2.53261 5.47545,3.43031 8.23847,1.97638 21.91243,12.1828 21.91243,16.35572 0,2.96397 -2.53472,3.62334 -13.95,3.62885 -12.7929,0.006 -18.37635,1.11249 -21.90483,4.34027 -2.10122,1.92216 -2.29083,2.74647 -1.76062,7.65415 0.32681,3.025 0.90605,6.85 1.28719,8.5 0.38115,1.65 0.68733,9.525 0.6804,17.5 -0.0101,11.65339 -0.43661,16.09564 -2.17246,22.62782 -4.72442,17.77848 -12.32152,31.41429 -24.17968,43.39939 -4.675,4.72505 -10.525,9.96457 -13,11.64339 -5.57529,3.78176 -18.72237,10.76684 -21.75,11.55582 -2.19917,0.57309 -2.25,0.90475 -2.25,14.67996 v 14.09362 h 86.5 86.5 V 301.55932 253.6319 l 2.60145,-2.0463 c 5.34518,-4.20452 13.08147,-3.74355 16.6156,0.99004 1.71614,2.29858 1.85356,5.5951 2.06085,49.43695 l 0.2221,46.97415 19.5,0.5 c 18.16816,0.46585 19.7732,0.66017 23.5,2.84513 2.2,1.28982 5.07887,3.69114 6.39749,5.33625 4.48809,5.59937 5.0119,8.92001 5.05862,32.06862 l 0.0439,21.75 h 3.81634 c 9.11976,0 26.67475,4.63167 40.51423,10.68918 9.07053,3.97016 18.30926,9.65857 28.37824,17.47287 4.13989,3.21288 6.83214,4.71509 7.08591,3.95379 1.29166,-3.87497 7.24993,-9.88019 12.19142,-12.28746 3.01626,-1.4694 5.7158,-2.65361 5.99899,-2.63158 0.28318,0.022 4.48468,-0.0132 9.33668,-0.0784 l 8.8218,-0.1184 -0.33085,-33.25 c -0.38708,-38.90128 -0.28757,-38.4335 -9.41907,-44.27486 -13.50233,-8.63733 -24.56787,-21.07737 -30.85748,-34.69041 -5.16453,-11.17793 -6.50439,-18.18078 -6.52143,-34.08439 -0.0176,-16.46725 -0.8961,-19.08881 -6.71895,-20.05106 -2.08771,-0.345 -8.74583,-0.63756 -14.79583,-0.65014 -11.81524,-0.0246 -20.40885,-1.72065 -23.73857,-4.68515 -4.08292,-3.6351 -7.42766,-15.75766 -5.50935,-19.9679 0.60765,-1.33365 7.96166,-6.80195 17.31023,-12.87155 8.93957,-5.80406 16.51963,-11.24568 16.84458,-12.0925 1.64023,-4.27436 7.95385,-12.24538 10.83177,-13.67523 1.79374,-0.89119 5.42505,-1.8963 8.06959,-2.23358 2.64454,-0.33729 5.03509,-1.20439 5.31234,-1.92689 0.27725,-0.72251 -0.90765,-3.60804 -2.63313,-6.41229 -3.38514,-5.50156 -3.95616,-5.77572 -16.91803,-8.12269 -24.64725,-4.4628 -45.46949,-22.63734 -50.52965,-44.10443 -1.83592,-7.78868 -1.96987,-20.49381 -0.25205,-23.90693 0.93853,-1.86474 2.18868,-2.57787 4.91986,-2.80647 4.9253,-0.41223 5.59201,1.08906 6.74034,15.17794 0.68294,8.37901 1.52252,12.64818 3.1081,15.80431 3.00969,5.99085 6.89124,10.97484 8.00915,10.28394 0.51415,-0.31777 0.93482,-5.97693 0.93482,-12.57592 0,-14.8514 1.26763,-20.66188 4.69534,-21.52218 3.49269,-0.87661 7.13348,1.10816 7.942,4.32958 0.38089,1.51756 0.1683,5.81622 -0.47241,9.55256 -3.082,17.97288 0.25747,27.69217 11.0666,32.20851 2.03733,0.85125 4.07131,1.54773 4.51996,1.54773 0.44865,0 0.81234,-4.1625 0.80819,-9.25 -0.0106,-13.04708 2.37376,-18.75 7.83939,-18.75 2.16045,0 3.3334,2.66766 4.03672,9.1807 1.22843,11.37593 7.09823,23.49273 12.81207,26.44747 6.75418,3.49272 19.90303,2.26022 24.98878,-2.34232 2.21109,-2.00102 4.51124,-9.77857 5.21214,-17.62394 0.85705,-9.59314 2.27249,-13.46641 5.53831,-15.15523 4.23679,-2.19093 4.91636,-1.94073 6.9271,2.5504 2.0351,4.54553 2.69225,17.89704 1.19076,24.19292 -1.01882,4.27201 -1.01733,4.27317 2.89302,2.25105 9.11284,-4.71243 14.55089,-20.85054 11.94311,-35.44274 -1.49476,-8.36419 -0.76895,-11.79306 2.78209,-13.14316 6.1424,-2.33534 9.89596,4.80146 10.95798,20.83485 0.33698,5.0875 0.88408,9.24542 1.21577,9.23983 0.61647,-0.0104 2.43564,-3.86281 6.84233,-14.48983 3.14373,-7.58129 4.84845,-9.5 8.44049,-9.5 3.90778,0 5.1201,3.45907 4.58838,13.09181 -0.35633,6.45532 -0.96338,8.55112 -4.05516,14 -4.75572,8.3814 -9.99694,13.83845 -18.69593,19.46579 -10.71535,6.93173 -17.00981,9.43516 -30.3539,12.07237 -12.51499,2.47335 -15.64761,3.92596 -18.4256,8.54404 -1.38393,2.30061 -1.41358,2.90894 -0.21233,4.35636 1.69215,2.03892 7.17272,1.64539 19.9748,-1.43427 10.28633,-2.47447 26.75373,-2.90143 27.59259,-0.71541 0.87243,2.27351 -3.56291,10.42566 -8.77508,16.12861 -6.25098,6.83957 -11.40595,9.31236 -21.12617,10.13402 -4.5516,0.38475 -7.68991,1.10052 -7.68785,1.75342 0.007,2.25695 10.9673,30.8777 13.44061,35.09808 2.88111,4.91625 8.83463,10.14181 15.5559,13.65383 4.36859,2.28269 5.43445,2.36885 36.5,2.95074 35.23824,0.66004 37.43936,0.993 49.04034,7.41844 6.91362,3.82924 15.22316,12.1381 18.43465,18.43315 4.1561,8.14663 3.71237,19.33672 -1.1808,29.77776 -1.22982,2.62419 -5.10859,8.54121 -8.61949,13.14893 -10.12667,13.2903 -9.58655,10.60985 -10.20056,50.62233 l -0.5371,35 -3.05194,6.52094 c -3.36957,7.19959 -7.35091,11.11189 -14.85733,14.59973 l -4.97223,2.31033 -50.47868,0.0511 c -41.11457,0.0417 -50.85881,0.3063 -52.52777,1.42661 -1.127,0.7565 -3.11581,3.43334 -4.41957,5.94853 l -2.37048,4.57306 5.00988,6.78484 c 7.05484,9.55429 13.80727,23.29276 17.83392,36.28483 0.76708,2.475 2.34082,9.9 3.4972,16.5 1.75611,10.02294 2.01564,14.5537 1.57527,27.5 -0.70418,20.70154 -3.86642,34.46868 -11.9914,52.20583 -3.40043,7.42327 -12.02957,21.70911 -13.79912,22.84493 -0.47193,0.30291 1.39768,2.77258 4.1547,5.48814 4.55737,4.48884 5.45269,4.9465 9.85548,5.03775 3.18557,0.066 5.84934,0.81715 7.78438,2.19502 1.61791,1.15206 11.25195,10.56223 21.40899,20.91149 10.15703,10.34926 24.12239,24.08548 31.03412,30.52492 10.63555,9.90881 12.99682,12.66632 15.36502,17.94338 6.0406,13.46023 1.70331,26.46995 -11.76736,35.29627 -3.51515,2.30322 -14.29863,2.89088 -19.12939,1.04249 z m -145.3142,-86.54657 c 40.56686,-8.267 73.55947,-37.4444 86.11439,-76.15625 1.37573,-4.24193 2.7731,-9.64193 3.10527,-12 0.33217,-2.35807 1.09459,-7.19741 1.69427,-10.75409 1.00328,-5.95044 0.65799,-21.02789 -0.72214,-31.53331 -0.81734,-6.2215 -5.33866,-20.27602 -9.01904,-28.0357 -6.52291,-13.75282 -19.43254,-30.80466 -29.39479,-38.82644 -16.71952,-13.46287 -36.01401,-22.06492 -56.22231,-25.06557 -61.80009,-9.17643 -115.26135,26.57375 -129.99277,86.92771 -1.75265,7.18053 -2.20341,12.03245 -2.22971,24 -0.035,15.92806 1.38278,25.25258 5.82283,38.29607 12.47798,36.65646 47.08772,65.94855 86.56747,73.26672 13.55218,2.5121 31.60314,2.46353 44.27653,-0.11914 z M 782.60206,427.1803 c 5.05137,-1.7609 7.38401,-6.55789 6.88726,-14.1634 -0.30767,-4.71076 -1.54488,-8.43695 -5.65453,-17.03016 -4.89956,-10.24491 -16.42587,-30.76575 -19.51865,-34.75 -1.21942,-1.5709 -3.57308,-1.75 -22.9982,-1.75 h -21.63976 v 34.5 34.5 l 29.75,-0.0564 c 20.33385,-0.0386 30.83369,-0.43422 33.17388,-1.25 z M 378.42974,182.23674 c 3.078,-3.29757 3.78977,-7.27488 1.83562,-10.25729 -2.07095,-3.16066 -4.99641,-3.17439 -8.13263,-0.0382 -3.03027,3.03026 -3.23438,7.76562 -0.45455,10.54545 2.58234,2.58234 4.16242,2.52383 6.75156,-0.25 z"
       id="path4754" />
  </g>
</svg>
